<svg width="54" height="56" viewBox="0 0 54 56" fill="none" xmlns="http://www.w3.org/2000/svg">
<g clip-path="url(#clip0_17_5404)">
<path d="M20.25 7H33.75L38.25 11.6667H47.25C47.8467 11.6667 48.419 11.9125 48.841 12.3501C49.263 12.7877 49.5 13.3812 49.5 14V46.6667C49.5 47.2855 49.263 47.879 48.841 48.3166C48.419 48.7542 47.8467 49 47.25 49H6.75C6.15326 49 5.58097 48.7542 5.15901 48.3166C4.73705 47.879 4.5 47.2855 4.5 46.6667V14C4.5 13.3812 4.73705 12.7877 5.15901 12.3501C5.58097 11.9125 6.15326 11.6667 6.75 11.6667H15.75L20.25 7ZM27 44.3333C30.5804 44.3333 34.0142 42.8583 36.5459 40.2328C39.0777 37.6073 40.5 34.0464 40.5 30.3333C40.5 26.6203 39.0777 23.0593 36.5459 20.4338C34.0142 17.8083 30.5804 16.3333 27 16.3333C23.4196 16.3333 19.9858 17.8083 17.4541 20.4338C14.9223 23.0593 13.5 26.6203 13.5 30.3333C13.5 34.0464 14.9223 37.6073 17.4541 40.2328C19.9858 42.8583 23.4196 44.3333 27 44.3333ZM27 39.6667C24.6131 39.6667 22.3239 38.6833 20.636 36.933C18.9482 35.1827 18 32.8087 18 30.3333C18 27.858 18.9482 25.484 20.636 23.7337C22.3239 21.9833 24.6131 21 27 21C29.387 21 31.6761 21.9833 33.364 23.7337C35.0518 25.484 36 27.858 36 30.3333C36 32.8087 35.0518 35.1827 33.364 36.933C31.6761 38.6833 29.387 39.6667 27 39.6667Z" fill="white"/>
</g>
<defs>
<clipPath id="clip0_17_5404">
<rect width="54" height="56" fill="white"/>
</clipPath>
</defs>
</svg>
